<?xml version="1.0" encoding="utf-8" standalone="no"?>
<!DOCTYPE svg PUBLIC "-//W3C//DTD SVG 1.1//EN"
  "http://www.w3.org/Graphics/SVG/1.1/DTD/svg11.dtd">
<svg xmlns:xlink="http://www.w3.org/1999/xlink" width="596.469687pt" height="387.343906pt" viewBox="0 0 596.469687 387.343906" xmlns="http://www.w3.org/2000/svg" version="1.1">
 <metadata>
  <rdf:RDF xmlns:dc="http://purl.org/dc/elements/1.1/" xmlns:cc="http://creativecommons.org/ns#" xmlns:rdf="http://www.w3.org/1999/02/22-rdf-syntax-ns#">
   <cc:Work>
    <dc:type rdf:resource="http://purl.org/dc/dcmitype/StillImage"/>
    <dc:date>2026-07-22T16:37:33.100215</dc:date>
    <dc:format>image/svg+xml</dc:format>
    <dc:creator>
     <cc:Agent>
      <dc:title>Matplotlib v3.10.9, https://matplotlib.org/</dc:title>
     </cc:Agent>
    </dc:creator>
   </cc:Work>
  </rdf:RDF>
 </metadata>
 <defs>
  <style type="text/css">*{stroke-linejoin: round; stroke-linecap: butt}</style>
 </defs>
 <g id="figure_1">
  <g id="patch_1">
   <path d="M 0 387.343906 
L 596.469687 387.343906 
L 596.469687 0 
L 0 0 
z
" style="fill: #ffffff"/>
  </g>
  <g id="axes_1">
   <g id="patch_2">
    <path d="M 43.179688 352.7325 
L 589.269688 352.7325 
L 589.269688 64.7925 
L 43.179688 64.7925 
z
" style="fill: #ffffff"/>
   </g>
   <g id="matplotlib.axis_1">
    <g id="xtick_1">
     <g id="line2d_1">
      <path d="M 68.00196 352.7325 
L 68.00196 64.7925 
" clip-path="url(#p787bbbd1e8)" style="fill: none; stroke: #d9e1e8; stroke-opacity: 0.8; stroke-width: 0.6; stroke-linecap: round"/>
     </g>
     <g id="line2d_2"/>
     <g id="text_1">
      <!-- 1 -->
      <g style="fill: #262626" transform="translate(65.363132 363.426875) scale(0.09 -0.09)">
       <defs>
        <path id="MicrosoftYaHei-31" d="M 1781 0 
L 1781 4141 
Q 1638 3997 1295 3819 
Q 953 3641 663 3569 
L 663 4169 
Q 1047 4275 1484 4508 
Q 1922 4741 2156 4947 
L 2388 4947 
L 2388 0 
L 1781 0 
z
" transform="scale(0.015625)"/>
       </defs>
       <use xlink:href="#MicrosoftYaHei-31"/>
      </g>
     </g>
    </g>
    <g id="xtick_2">
     <g id="line2d_3">
      <path d="M 316.224687 352.7325 
L 316.224687 64.7925 
" clip-path="url(#p787bbbd1e8)" style="fill: none; stroke: #d9e1e8; stroke-opacity: 0.8; stroke-width: 0.6; stroke-linecap: round"/>
     </g>
     <g id="line2d_4"/>
     <g id="text_2">
      <!-- 3 -->
      <g style="fill: #262626" transform="translate(313.585859 363.426875) scale(0.09 -0.09)">
       <defs>
        <path id="MicrosoftYaHei-33" d="M 447 809 
Q 944 425 1569 425 
Q 2069 425 2361 670 
Q 2653 916 2653 1328 
Q 2653 2247 1338 2247 
L 934 2247 
L 934 2753 
L 1319 2753 
Q 2484 2753 2484 3616 
Q 2484 4413 1594 4413 
Q 1084 4413 634 4069 
L 634 4647 
Q 1109 4922 1744 4922 
Q 2363 4922 2738 4598 
Q 3113 4275 3113 3759 
Q 3113 2809 2144 2538 
L 2144 2525 
Q 2669 2469 2973 2155 
Q 3278 1841 3278 1372 
Q 3278 719 2808 319 
Q 2338 -81 1556 -81 
Q 869 -81 447 175 
L 447 809 
z
" transform="scale(0.015625)"/>
       </defs>
       <use xlink:href="#MicrosoftYaHei-33"/>
      </g>
     </g>
    </g>
    <g id="xtick_3">
     <g id="line2d_5">
      <path d="M 564.447415 352.7325 
L 564.447415 64.7925 
" clip-path="url(#p787bbbd1e8)" style="fill: none; stroke: #d9e1e8; stroke-opacity: 0.8; stroke-width: 0.6; stroke-linecap: round"/>
     </g>
     <g id="line2d_6"/>
     <g id="text_3">
      <!-- 5 -->
      <g style="fill: #262626" transform="translate(561.808587 363.426875) scale(0.09 -0.09)">
       <defs>
        <path id="MicrosoftYaHei-35" d="M 3294 1494 
Q 3294 784 2823 350 
Q 2353 -84 1559 -84 
Q 878 -84 544 119 
L 544 744 
Q 1034 425 1544 425 
Q 2050 425 2361 704 
Q 2672 984 2672 1447 
Q 2672 1909 2348 2167 
Q 2025 2425 1434 2425 
Q 978 2425 613 2384 
L 791 4841 
L 3053 4841 
L 3053 4303 
L 1306 4303 
L 1206 2931 
L 1647 2950 
Q 2416 2950 2855 2567 
Q 3294 2184 3294 1494 
z
" transform="scale(0.015625)"/>
       </defs>
       <use xlink:href="#MicrosoftYaHei-35"/>
      </g>
     </g>
    </g>
    <g id="text_4">
     <!-- 每类原型簇数 K -->
     <g style="fill: #262626" transform="translate(281.570781 377.657969) scale(0.1 -0.1)">
      <defs>
       <path id="MicrosoftYaHei-6bcf" d="M 125 2203 
L 1044 2203 
L 1325 3766 
L 5456 3766 
Q 5422 2928 5391 2203 
L 6300 2203 
L 6300 1753 
L 5372 1753 
Q 5344 1141 5319 616 
L 6075 616 
L 6075 178 
L 5284 178 
Q 5222 -278 5031 -484 
Q 4788 -753 4181 -753 
Q 3831 -753 3288 -728 
Q 3256 -516 3194 -222 
Q 3838 -278 4119 -278 
Q 4513 -278 4638 -128 
Q 4722 -41 4766 178 
L 763 178 
L 763 647 
L 963 1753 
L 125 1753 
L 125 2203 
z
M 4866 1753 
L 1472 1753 
L 1275 616 
L 4813 616 
Q 4844 1172 4866 1753 
z
M 4925 3328 
L 1750 3328 
L 1553 2203 
L 4888 2203 
Q 4906 2753 4925 3328 
z
M 100 3522 
Q 1025 4309 1550 5359 
L 2113 5359 
Q 1966 5069 1803 4803 
L 6156 4803 
L 6156 4353 
L 1509 4353 
Q 1022 3659 413 3134 
Q 281 3316 100 3522 
z
M 2619 2978 
L 2913 3303 
Q 3388 2934 3750 2622 
L 3413 2247 
Q 3025 2628 2619 2978 
z
M 2569 1391 
L 2863 1716 
Q 3338 1347 3700 1034 
L 3369 666 
Q 2888 1116 2569 1391 
z
" transform="scale(0.015625)"/>
       <path id="MicrosoftYaHei-7c7b" d="M 6338 -359 
Q 6213 -503 6006 -853 
Q 3975 -459 3200 884 
Q 2644 -497 400 -897 
Q 288 -684 131 -434 
Q 2244 -147 2744 1047 
L 275 1047 
L 275 1484 
L 2875 1484 
Q 2925 1691 2956 1978 
L 3456 1978 
Q 3413 1697 3369 1484 
L 6125 1484 
L 6125 1047 
L 3619 1047 
Q 4450 -159 6338 -359 
z
M 325 3741 
L 2975 3741 
L 2975 5303 
L 3450 5303 
L 3450 3741 
L 6075 3741 
L 6075 3322 
L 3450 3322 
L 3450 2953 
L 3625 3191 
Q 5325 2528 6231 2128 
L 6013 1722 
Q 4956 2266 3450 2847 
L 3450 2197 
L 2975 2197 
L 2975 3241 
Q 1863 2191 450 1741 
Q 319 1934 144 2153 
Q 1569 2553 2538 3322 
L 325 3322 
L 325 3741 
z
M 5550 4784 
Q 5163 4459 4394 3891 
L 4069 4222 
Q 4569 4578 5194 5122 
L 5550 4784 
z
M 900 4791 
L 1206 5122 
Q 1875 4647 2306 4266 
L 1969 3897 
Q 1581 4284 900 4791 
z
" transform="scale(0.015625)"/>
       <path id="MicrosoftYaHei-539f" d="M 1950 3853 
L 3081 3853 
Q 3200 4153 3306 4472 
L 1256 4472 
L 1256 2772 
Q 1256 1322 1088 634 
Q 919 -103 394 -866 
Q 238 -653 44 -434 
Q 475 209 613 834 
Q 756 1428 756 2659 
L 756 4928 
L 6219 4928 
L 6219 4472 
L 3856 4472 
Q 3716 4134 3584 3853 
L 5719 3853 
L 5719 1291 
L 5250 1291 
L 5250 1416 
L 4094 1416 
L 4094 16 
Q 4094 -772 3381 -766 
Q 3163 -766 2594 -753 
Q 2569 -516 2513 -209 
Q 3000 -272 3281 -272 
Q 3594 -272 3594 91 
L 3594 1416 
L 2419 1416 
L 2419 1291 
L 1950 1291 
L 1950 3853 
z
M 2419 1834 
L 5250 1834 
L 5250 2434 
L 2419 2434 
L 2419 1834 
z
M 5250 3434 
L 2419 3434 
L 2419 2841 
L 5250 2841 
L 5250 3434 
z
M 2488 1172 
L 2919 891 
Q 2313 -9 1613 -703 
Q 1450 -566 1206 -397 
Q 1838 184 2488 1172 
z
M 4925 1159 
Q 5738 391 6313 -266 
L 5894 -641 
Q 5294 122 4556 859 
L 4925 1159 
z
" transform="scale(0.015625)"/>
       <path id="MicrosoftYaHei-578b" d="M 150 3503 
L 1100 3503 
Q 1106 3638 1106 4547 
L 413 4547 
L 413 4959 
L 3675 4959 
L 3675 4547 
L 2994 4547 
L 2994 3503 
L 3881 3503 
L 3881 3091 
L 2994 3091 
L 2994 1747 
L 2538 1747 
L 2538 3091 
L 1528 3091 
Q 1450 2191 638 1534 
Q 475 1716 294 1897 
Q 1013 2453 1066 3091 
L 150 3091 
L 150 3503 
z
M 138 -103 
L 2938 -103 
L 2938 741 
L 706 741 
L 706 1172 
L 2938 1172 
L 2938 1659 
L 3425 1659 
L 3425 1172 
L 5713 1172 
L 5713 741 
L 3425 741 
L 3425 -103 
L 6256 -103 
L 6256 -534 
L 138 -534 
L 138 -103 
z
M 5856 5209 
L 5856 2334 
Q 5856 1672 5200 1659 
Q 4825 1647 4331 1659 
Q 4306 1897 4256 2153 
Q 4781 2122 5044 2122 
Q 5400 2122 5400 2516 
L 5400 5209 
L 5856 5209 
z
M 1556 3503 
L 2538 3503 
L 2538 4547 
L 1563 4547 
Q 1563 3791 1556 3503 
z
M 4138 4859 
L 4588 4859 
L 4588 2697 
L 4138 2697 
L 4138 4859 
z
" transform="scale(0.015625)"/>
       <path id="MicrosoftYaHei-7c07" d="M 2725 1134 
L 4244 1134 
Q 4269 1456 4275 1834 
L 3666 1834 
Q 3459 1484 3213 1197 
Q 3075 1328 2863 1491 
Q 3294 1934 3600 2609 
L 4050 2609 
Q 3966 2400 3869 2209 
L 6000 2209 
L 6000 1834 
L 4722 1834 
Q 4713 1431 4684 1134 
L 6219 1134 
L 6219 759 
L 4747 759 
Q 5300 -113 6294 -409 
Q 6138 -647 6019 -834 
Q 5013 -478 4494 481 
Q 4200 -331 2881 -872 
Q 2750 -659 2606 -459 
Q 3884 -81 4169 759 
L 2725 759 
L 2725 1134 
z
M 81 3041 
L 1391 3041 
Q 1219 3319 988 3622 
L 1319 3834 
Q 1556 3541 1763 3228 
L 1463 3041 
L 2681 3041 
L 2681 2666 
L 1188 2666 
Q 1184 2319 1175 2016 
L 2431 2016 
Q 2406 853 2369 47 
Q 2331 -734 1656 -734 
Q 1400 -734 1119 -728 
Q 1081 -528 1038 -253 
Q 1381 -291 1575 -291 
Q 1894 -291 1925 103 
Q 1963 734 1975 1641 
L 1159 1641 
Q 1138 53 413 -878 
Q 256 -666 94 -491 
Q 469 -28 613 722 
Q 747 1366 744 2666 
L 81 2666 
L 81 3041 
z
M 3800 5334 
L 4300 5334 
Q 4169 5041 4028 4778 
L 6163 4778 
L 6163 4403 
L 3809 4403 
Q 3559 4006 3275 3684 
Q 3113 3828 2888 3959 
Q 3488 4559 3800 5334 
z
M 1294 5334 
L 1800 5334 
Q 1669 5044 1509 4778 
L 3150 4778 
L 3150 4403 
L 1266 4403 
Q 888 3872 394 3447 
Q 269 3597 81 3784 
Q 925 4509 1294 5334 
z
M 3406 3691 
L 3863 3691 
Q 3763 3453 3650 3234 
L 6081 3234 
L 6081 2859 
L 3444 2859 
Q 3219 2488 2956 2184 
Q 2831 2316 2600 2484 
Q 3163 3066 3406 3691 
z
M 5000 3434 
Q 4744 3759 4425 4078 
L 4744 4322 
Q 5088 4028 5350 3716 
L 5000 3434 
z
M 2238 3484 
Q 1988 3822 1713 4109 
L 2031 4353 
Q 2306 4084 2588 3753 
L 2238 3484 
z
" transform="scale(0.015625)"/>
       <path id="MicrosoftYaHei-6570" d="M 4175 5303 
L 4675 5228 
Q 4544 4622 4369 4097 
L 6281 4097 
L 6281 3672 
L 5888 3672 
Q 5731 1834 5088 753 
Q 5594 66 6375 -372 
Q 6175 -647 6038 -866 
Q 5275 -372 4769 309 
Q 4194 -403 3400 -928 
Q 3263 -747 3044 -534 
Q 3919 41 4463 772 
Q 3956 1647 3794 2791 
Q 3663 2559 3519 2359 
Q 3394 2541 3206 2759 
Q 3931 3803 4175 5303 
z
M 150 1697 
L 1100 1697 
Q 1238 1934 1369 2184 
L 1819 2041 
Q 1719 1866 1619 1697 
L 3150 1697 
L 3150 1291 
Q 2913 678 2431 216 
Q 2775 53 3131 -109 
L 2856 -541 
Q 2469 -322 2050 -103 
Q 1344 -609 269 -903 
Q 169 -703 56 -466 
Q 969 -259 1600 128 
Q 1063 403 475 691 
Q 675 978 863 1284 
L 150 1284 
L 150 1697 
z
M 219 3847 
L 1656 3847 
L 1656 5247 
L 2119 5247 
L 2119 3847 
L 3319 3847 
L 3319 3434 
L 2119 3434 
L 2119 3053 
L 2306 3266 
Q 2888 2841 3281 2516 
L 2981 2166 
Q 2638 2491 2119 2897 
L 2119 2184 
L 1656 2184 
L 1656 3059 
Q 1088 2466 331 2016 
Q 213 2197 63 2397 
Q 850 2822 1506 3434 
L 219 3434 
L 219 3847 
z
M 5388 3672 
L 4219 3672 
Q 4188 3591 4150 3516 
Q 4263 2191 4775 1247 
Q 5275 2159 5388 3672 
z
M 1088 834 
Q 1531 634 2000 416 
Q 2431 784 2675 1284 
L 1375 1284 
Q 1231 1053 1088 834 
z
M 3038 5091 
L 3425 4834 
Q 3081 4384 2738 4003 
Q 2594 4128 2400 4266 
Q 2725 4647 3038 5091 
z
M 381 4816 
L 738 5059 
Q 1019 4716 1319 4322 
L 931 4047 
Q 656 4453 381 4816 
z
" transform="scale(0.015625)"/>
       <path id="MicrosoftYaHei-20" transform="scale(0.015625)"/>
       <path id="MicrosoftYaHei-4b" d="M 4069 0 
L 3213 0 
L 1394 2200 
Q 1300 2316 1266 2381 
L 1250 2381 
L 1250 0 
L 625 0 
L 625 4841 
L 1250 4841 
L 1250 2563 
L 1266 2563 
Q 1319 2647 1394 2741 
L 3150 4841 
L 3922 4841 
L 1891 2519 
L 4069 0 
z
" transform="scale(0.015625)"/>
      </defs>
      <use xlink:href="#MicrosoftYaHei-6bcf"/>
      <use xlink:href="#MicrosoftYaHei-7c7b" transform="translate(100 0)"/>
      <use xlink:href="#MicrosoftYaHei-539f" transform="translate(200 0)"/>
      <use xlink:href="#MicrosoftYaHei-578b" transform="translate(300 0)"/>
      <use xlink:href="#MicrosoftYaHei-7c07" transform="translate(400 0)"/>
      <use xlink:href="#MicrosoftYaHei-6570" transform="translate(500 0)"/>
      <use xlink:href="#MicrosoftYaHei-20" transform="translate(600 0)"/>
      <use xlink:href="#MicrosoftYaHei-4b" transform="translate(629.589844 0)"/>
     </g>
    </g>
   </g>
   <g id="matplotlib.axis_2">
    <g id="ytick_1">
     <g id="line2d_7">
      <path d="M 43.179688 352.7325 
L 589.269688 352.7325 
" clip-path="url(#p787bbbd1e8)" style="fill: none; stroke: #d9e1e8; stroke-opacity: 0.8; stroke-width: 0.6; stroke-linecap: round"/>
     </g>
     <g id="line2d_8"/>
     <g id="text_5">
      <!-- 0.93 -->
      <g style="fill: #262626" transform="translate(21.679688 356.329687) scale(0.09 -0.09)">
       <defs>
        <path id="MicrosoftYaHei-30" d="M 284 2325 
Q 284 3606 709 4264 
Q 1134 4922 1941 4922 
Q 3478 4922 3478 2441 
Q 3478 1216 3045 567 
Q 2613 -81 1831 -81 
Q 1094 -81 689 534 
Q 284 1150 284 2325 
z
M 909 2353 
Q 909 425 1888 425 
Q 2850 425 2850 2384 
Q 2850 4413 1906 4413 
Q 909 4413 909 2353 
z
" transform="scale(0.015625)"/>
        <path id="MicrosoftYaHei-2e" d="M 372 322 
Q 372 491 487 606 
Q 603 722 775 722 
Q 950 722 1065 605 
Q 1181 488 1181 322 
Q 1181 159 1065 42 
Q 950 -75 772 -75 
Q 600 -75 486 42 
Q 372 159 372 322 
z
" transform="scale(0.015625)"/>
        <path id="MicrosoftYaHei-39" d="M 578 656 
Q 978 425 1441 425 
Q 2091 425 2448 937 
Q 2806 1450 2806 2394 
Q 2800 2388 2794 2394 
Q 2475 1788 1722 1788 
Q 1113 1788 713 2206 
Q 313 2625 313 3294 
Q 313 4006 750 4464 
Q 1188 4922 1884 4922 
Q 2606 4922 3012 4355 
Q 3419 3788 3419 2703 
Q 3419 1363 2894 641 
Q 2369 -81 1441 -81 
Q 931 -81 578 84 
L 578 656 
z
M 931 3372 
Q 931 2884 1181 2598 
Q 1431 2313 1872 2313 
Q 2253 2313 2512 2573 
Q 2772 2834 2772 3206 
Q 2772 3728 2514 4070 
Q 2256 4413 1834 4413 
Q 1444 4413 1187 4116 
Q 931 3819 931 3372 
z
" transform="scale(0.015625)"/>
       </defs>
       <use xlink:href="#MicrosoftYaHei-30"/>
       <use xlink:href="#MicrosoftYaHei-2e" transform="translate(58.642578 0)"/>
       <use xlink:href="#MicrosoftYaHei-39" transform="translate(82.714844 0)"/>
       <use xlink:href="#MicrosoftYaHei-33" transform="translate(141.357422 0)"/>
      </g>
     </g>
    </g>
    <g id="ytick_2">
     <g id="line2d_9">
      <path d="M 43.179688 312.740833 
L 589.269688 312.740833 
" clip-path="url(#p787bbbd1e8)" style="fill: none; stroke: #d9e1e8; stroke-opacity: 0.8; stroke-width: 0.6; stroke-linecap: round"/>
     </g>
     <g id="line2d_10"/>
     <g id="text_6">
      <!-- 0.94 -->
      <g style="fill: #262626" transform="translate(21.679688 316.338021) scale(0.09 -0.09)">
       <defs>
        <path id="MicrosoftYaHei-34" d="M 2906 4841 
L 2906 1644 
L 3631 1644 
L 3631 1138 
L 2906 1138 
L 2906 0 
L 2313 0 
L 2313 1138 
L 53 1138 
L 53 1616 
Q 656 2294 1265 3178 
Q 1875 4063 2272 4841 
L 2906 4841 
z
M 741 1644 
L 2313 1644 
L 2313 3950 
Q 1988 3366 1616 2817 
Q 1244 2269 741 1644 
z
" transform="scale(0.015625)"/>
       </defs>
       <use xlink:href="#MicrosoftYaHei-30"/>
       <use xlink:href="#MicrosoftYaHei-2e" transform="translate(58.642578 0)"/>
       <use xlink:href="#MicrosoftYaHei-39" transform="translate(82.714844 0)"/>
       <use xlink:href="#MicrosoftYaHei-34" transform="translate(141.357422 0)"/>
      </g>
     </g>
    </g>
    <g id="ytick_3">
     <g id="line2d_11">
      <path d="M 43.179688 272.749167 
L 589.269688 272.749167 
" clip-path="url(#p787bbbd1e8)" style="fill: none; stroke: #d9e1e8; stroke-opacity: 0.8; stroke-width: 0.6; stroke-linecap: round"/>
     </g>
     <g id="line2d_12"/>
     <g id="text_7">
      <!-- 0.95 -->
      <g style="fill: #262626" transform="translate(21.679688 276.346354) scale(0.09 -0.09)">
       <use xlink:href="#MicrosoftYaHei-30"/>
       <use xlink:href="#MicrosoftYaHei-2e" transform="translate(58.642578 0)"/>
       <use xlink:href="#MicrosoftYaHei-39" transform="translate(82.714844 0)"/>
       <use xlink:href="#MicrosoftYaHei-35" transform="translate(141.357422 0)"/>
      </g>
     </g>
    </g>
    <g id="ytick_4">
     <g id="line2d_13">
      <path d="M 43.179688 232.7575 
L 589.269688 232.7575 
" clip-path="url(#p787bbbd1e8)" style="fill: none; stroke: #d9e1e8; stroke-opacity: 0.8; stroke-width: 0.6; stroke-linecap: round"/>
     </g>
     <g id="line2d_14"/>
     <g id="text_8">
      <!-- 0.96 -->
      <g style="fill: #262626" transform="translate(21.679688 236.354687) scale(0.09 -0.09)">
       <defs>
        <path id="MicrosoftYaHei-36" d="M 3181 4219 
Q 2803 4413 2391 4413 
Q 1763 4413 1381 3866 
Q 1000 3319 994 2372 
L 1009 2372 
Q 1353 3038 2106 3038 
Q 2734 3038 3109 2628 
Q 3484 2219 3484 1541 
Q 3484 831 3051 375 
Q 2619 -81 1947 -81 
Q 1209 -81 789 495 
Q 369 1072 369 2131 
Q 369 3413 920 4167 
Q 1472 4922 2372 4922 
Q 2888 4922 3181 4781 
L 3181 4219 
z
M 1031 1584 
Q 1031 1106 1286 765 
Q 1541 425 1963 425 
Q 2363 425 2613 719 
Q 2863 1013 2863 1475 
Q 2863 1975 2627 2253 
Q 2391 2531 1956 2531 
Q 1544 2531 1287 2250 
Q 1031 1969 1031 1584 
z
" transform="scale(0.015625)"/>
       </defs>
       <use xlink:href="#MicrosoftYaHei-30"/>
       <use xlink:href="#MicrosoftYaHei-2e" transform="translate(58.642578 0)"/>
       <use xlink:href="#MicrosoftYaHei-39" transform="translate(82.714844 0)"/>
       <use xlink:href="#MicrosoftYaHei-36" transform="translate(141.357422 0)"/>
      </g>
     </g>
    </g>
    <g id="ytick_5">
     <g id="line2d_15">
      <path d="M 43.179688 192.765833 
L 589.269688 192.765833 
" clip-path="url(#p787bbbd1e8)" style="fill: none; stroke: #d9e1e8; stroke-opacity: 0.8; stroke-width: 0.6; stroke-linecap: round"/>
     </g>
     <g id="line2d_16"/>
     <g id="text_9">
      <!-- 0.97 -->
      <g style="fill: #262626" transform="translate(21.679688 196.363021) scale(0.09 -0.09)">
       <defs>
        <path id="MicrosoftYaHei-37" d="M 3422 4463 
Q 2659 3131 2223 1998 
Q 1788 866 1684 0 
L 1047 0 
Q 1163 853 1594 1947 
Q 2025 3041 2747 4300 
L 347 4300 
L 347 4841 
L 3422 4841 
L 3422 4463 
z
" transform="scale(0.015625)"/>
       </defs>
       <use xlink:href="#MicrosoftYaHei-30"/>
       <use xlink:href="#MicrosoftYaHei-2e" transform="translate(58.642578 0)"/>
       <use xlink:href="#MicrosoftYaHei-39" transform="translate(82.714844 0)"/>
       <use xlink:href="#MicrosoftYaHei-37" transform="translate(141.357422 0)"/>
      </g>
     </g>
    </g>
    <g id="ytick_6">
     <g id="line2d_17">
      <path d="M 43.179688 152.774167 
L 589.269688 152.774167 
" clip-path="url(#p787bbbd1e8)" style="fill: none; stroke: #d9e1e8; stroke-opacity: 0.8; stroke-width: 0.6; stroke-linecap: round"/>
     </g>
     <g id="line2d_18"/>
     <g id="text_10">
      <!-- 0.98 -->
      <g style="fill: #262626" transform="translate(21.679688 156.371354) scale(0.09 -0.09)">
       <defs>
        <path id="MicrosoftYaHei-38" d="M 306 1350 
Q 306 1769 556 2122 
Q 806 2475 1200 2625 
Q 884 2803 700 3081 
Q 516 3359 516 3684 
Q 516 4028 692 4312 
Q 869 4597 1183 4759 
Q 1497 4922 1875 4922 
Q 2256 4922 2572 4761 
Q 2888 4600 3063 4315 
Q 3238 4031 3238 3684 
Q 3238 3366 3058 3086 
Q 2878 2806 2559 2625 
Q 2953 2472 3200 2119 
Q 3447 1766 3447 1350 
Q 3447 938 3250 611 
Q 3053 284 2690 103 
Q 2328 -78 1875 -78 
Q 1425 -78 1065 103 
Q 706 284 506 612 
Q 306 941 306 1350 
z
M 906 1378 
Q 906 947 1172 687 
Q 1438 428 1878 428 
Q 2309 428 2582 692 
Q 2856 956 2856 1378 
Q 2856 1778 2579 2051 
Q 2303 2325 1878 2325 
Q 1456 2325 1181 2058 
Q 906 1791 906 1378 
z
M 1081 3634 
Q 1081 3309 1312 3076 
Q 1544 2844 1878 2844 
Q 2206 2844 2445 3078 
Q 2684 3313 2684 3634 
Q 2684 3963 2454 4191 
Q 2225 4419 1878 4419 
Q 1534 4419 1307 4195 
Q 1081 3972 1081 3634 
z
" transform="scale(0.015625)"/>
       </defs>
       <use xlink:href="#MicrosoftYaHei-30"/>
       <use xlink:href="#MicrosoftYaHei-2e" transform="translate(58.642578 0)"/>
       <use xlink:href="#MicrosoftYaHei-39" transform="translate(82.714844 0)"/>
       <use xlink:href="#MicrosoftYaHei-38" transform="translate(141.357422 0)"/>
      </g>
     </g>
    </g>
    <g id="ytick_7">
     <g id="line2d_19">
      <path d="M 43.179688 112.7825 
L 589.269688 112.7825 
" clip-path="url(#p787bbbd1e8)" style="fill: none; stroke: #d9e1e8; stroke-opacity: 0.8; stroke-width: 0.6; stroke-linecap: round"/>
     </g>
     <g id="line2d_20"/>
     <g id="text_11">
      <!-- 0.99 -->
      <g style="fill: #262626" transform="translate(21.679688 116.379688) scale(0.09 -0.09)">
       <use xlink:href="#MicrosoftYaHei-30"/>
       <use xlink:href="#MicrosoftYaHei-2e" transform="translate(58.642578 0)"/>
       <use xlink:href="#MicrosoftYaHei-39" transform="translate(82.714844 0)"/>
       <use xlink:href="#MicrosoftYaHei-39" transform="translate(141.357422 0)"/>
      </g>
     </g>
    </g>
    <g id="ytick_8">
     <g id="line2d_21">
      <path d="M 43.179688 72.790833 
L 589.269688 72.790833 
" clip-path="url(#p787bbbd1e8)" style="fill: none; stroke: #d9e1e8; stroke-opacity: 0.8; stroke-width: 0.6; stroke-linecap: round"/>
     </g>
     <g id="line2d_22"/>
     <g id="text_12">
      <!-- 1.00 -->
      <g style="fill: #262626" transform="translate(21.679688 76.388021) scale(0.09 -0.09)">
       <use xlink:href="#MicrosoftYaHei-31"/>
       <use xlink:href="#MicrosoftYaHei-2e" transform="translate(58.642578 0)"/>
       <use xlink:href="#MicrosoftYaHei-30" transform="translate(82.714844 0)"/>
       <use xlink:href="#MicrosoftYaHei-30" transform="translate(141.357422 0)"/>
      </g>
     </g>
    </g>
    <g id="text_13">
     <!-- 测试集指标 -->
     <g style="fill: #262626" transform="translate(15.19375 233.7625) rotate(-90) scale(0.1 -0.1)">
      <defs>
       <path id="MicrosoftYaHei-6d4b" d="M 875 1753 
Q 1175 1597 1369 1522 
Q 950 -41 763 -784 
L 250 -547 
Q 619 497 875 1753 
z
M 638 5166 
Q 1019 4847 1588 4303 
Q 1381 4103 1213 3928 
Q 756 4434 313 4853 
L 638 5166 
z
M 356 3559 
Q 881 3134 1350 2716 
Q 1188 2547 988 2322 
Q 425 2878 50 3216 
L 356 3559 
z
M 5575 5284 
L 6031 5284 
L 6031 -34 
Q 6031 -753 5338 -753 
Q 5038 -753 4625 -741 
Q 4600 -509 4538 -228 
Q 4938 -272 5219 -272 
Q 5575 -272 5575 84 
L 5575 5284 
z
M 5038 634 
L 4600 634 
L 4600 4778 
L 5038 4778 
L 5038 634 
z
M 1706 4941 
L 4063 4941 
L 4063 991 
L 3613 991 
L 3613 4503 
L 2156 4503 
L 2156 991 
L 1706 991 
L 1706 4941 
z
M 2681 3966 
L 3138 3966 
L 3138 2416 
Q 3138 1466 2963 891 
Q 3775 266 4375 -234 
L 4038 -616 
Q 3538 -141 2800 472 
Q 2413 -297 1406 -884 
Q 1269 -684 1100 -484 
Q 2031 53 2375 709 
Q 2681 1278 2681 2403 
L 2681 3966 
z
" transform="scale(0.015625)"/>
       <path id="MicrosoftYaHei-8bd5" d="M 1913 4078 
L 4194 4078 
Q 4188 4656 4188 5334 
L 4681 5334 
Q 4669 4591 4675 4078 
L 6219 4078 
L 6219 3622 
L 4684 3622 
Q 4747 978 5275 22 
Q 5469 -303 5600 -303 
Q 5706 -303 5750 -53 
Q 5813 328 5844 941 
Q 6113 834 6313 778 
Q 6231 72 6156 -297 
Q 6056 -822 5631 -822 
Q 5281 -822 4938 -341 
Q 4300 584 4206 3622 
L 1913 3622 
L 1913 4078 
z
M 1800 66 
Q 2272 128 2788 209 
L 2788 2147 
L 1894 2147 
L 1894 2591 
L 4056 2591 
L 4056 2147 
L 3250 2147 
L 3250 281 
Q 3741 363 4269 459 
Q 4256 209 4256 -28 
Q 2888 -247 1925 -422 
L 1800 66 
z
M 2038 1334 
Q 2069 984 2106 728 
Q 1688 328 1269 -103 
Q 1075 -303 944 -484 
L 594 -84 
Q 813 159 813 516 
L 813 2816 
L 88 2816 
L 88 3259 
L 1288 3259 
L 1288 572 
Q 1625 897 2038 1334 
z
M 700 5172 
Q 1263 4622 1688 4134 
L 1275 3778 
Q 881 4297 344 4853 
L 700 5172 
z
M 4919 4897 
L 5206 5197 
Q 5706 4828 6000 4547 
L 5656 4197 
Q 5313 4566 4919 4897 
z
" transform="scale(0.015625)"/>
       <path id="MicrosoftYaHei-96c6" d="M 3056 5134 
L 3425 5359 
Q 3719 5034 3906 4722 
L 3619 4541 
L 6013 4541 
L 6013 4153 
L 3644 4153 
L 3644 3709 
L 5738 3709 
L 5738 3347 
L 3644 3347 
L 3644 2903 
L 5738 2903 
L 5738 2541 
L 3644 2541 
L 3644 2084 
L 6031 2084 
L 6031 1697 
L 1475 1697 
L 1475 1459 
L 1038 1459 
L 1038 3684 
Q 716 3309 381 3009 
Q 281 3191 81 3422 
Q 988 4178 1613 5284 
L 2044 5091 
Q 1869 4803 1688 4541 
L 3456 4541 
Q 3288 4825 3056 5134 
z
M 288 1141 
L 2981 1141 
L 2981 1566 
L 3419 1566 
L 3419 1141 
L 6106 1141 
L 6106 741 
L 3906 741 
Q 5000 -31 6338 -303 
Q 6169 -566 6044 -766 
Q 4519 -325 3419 631 
L 3419 -834 
L 2981 -834 
L 2981 638 
Q 1844 -313 356 -778 
Q 225 -584 63 -384 
Q 1406 -56 2475 741 
L 288 741 
L 288 1141 
z
M 1475 2084 
L 3206 2084 
L 3206 2541 
L 1475 2541 
L 1475 2084 
z
M 1475 2903 
L 3206 2903 
L 3206 3347 
L 1475 3347 
L 1475 2903 
z
M 1475 3709 
L 3206 3709 
L 3206 4153 
L 1475 4153 
L 1475 3709 
z
" transform="scale(0.015625)"/>
       <path id="MicrosoftYaHei-6307" d="M 2556 2316 
L 5856 2316 
L 5856 -822 
L 5381 -822 
L 5381 -441 
L 3031 -441 
L 3031 -822 
L 2556 -822 
L 2556 2316 
z
M 88 1978 
Q 550 2088 975 2194 
L 975 3647 
L 144 3647 
L 144 4097 
L 975 4097 
L 975 5309 
L 1444 5309 
L 1444 4097 
L 2250 4097 
L 2250 3647 
L 1444 3647 
L 1444 2319 
Q 1778 2409 2088 2503 
Q 2100 2216 2131 2016 
Q 1775 1916 1444 1822 
L 1444 -59 
Q 1444 -753 825 -759 
Q 594 -766 219 -747 
Q 194 -497 138 -253 
Q 481 -297 694 -297 
Q 975 -297 975 16 
L 975 1684 
Q 534 1556 150 1441 
L 88 1978 
z
M 2494 5322 
L 2969 5322 
L 2969 4359 
Q 4463 4641 5938 5084 
L 6106 4641 
Q 4888 4263 2969 3916 
L 2969 3709 
Q 2969 3259 3431 3259 
L 5156 3259 
Q 5613 3259 5700 3659 
Q 5756 3891 5813 4291 
Q 6038 4197 6281 4122 
Q 6213 3716 6144 3466 
Q 6000 2834 5244 2834 
L 3288 2834 
Q 2494 2834 2494 3678 
L 2494 5322 
z
M 5381 1891 
L 3031 1891 
L 3031 1134 
L 5381 1134 
L 5381 1891 
z
M 3031 -16 
L 5381 -16 
L 5381 734 
L 3031 734 
L 3031 -16 
z
" transform="scale(0.015625)"/>
       <path id="MicrosoftYaHei-6807" d="M 75 1409 
Q 769 2478 1025 3647 
L 119 3647 
L 119 4072 
L 1069 4072 
L 1069 5297 
L 1506 5297 
L 1506 4072 
L 2356 4072 
L 2356 3647 
L 1506 3647 
L 1506 2541 
L 1775 2822 
Q 2175 2478 2481 2159 
L 2150 1816 
Q 1850 2156 1506 2503 
L 1506 -797 
L 1069 -797 
L 1069 2588 
Q 738 1513 281 859 
Q 194 1128 75 1409 
z
M 2350 3097 
L 6250 3097 
L 6250 2659 
L 4525 2659 
L 4525 47 
Q 4525 -734 3806 -734 
Q 3469 -741 2975 -728 
Q 2944 -503 2888 -209 
Q 3319 -259 3675 -259 
Q 4050 -259 4050 203 
L 4050 2659 
L 2350 2659 
L 2350 3097 
z
M 2638 4928 
L 5963 4928 
L 5963 4491 
L 2638 4491 
L 2638 4928 
z
M 4938 1853 
L 5381 2066 
Q 5975 928 6369 72 
L 5869 -147 
Q 5463 822 4938 1853 
z
M 2931 2066 
L 3400 1878 
Q 2888 734 2381 -153 
Q 2188 -41 1925 66 
Q 2425 872 2931 2066 
z
" transform="scale(0.015625)"/>
      </defs>
      <use xlink:href="#MicrosoftYaHei-6d4b"/>
      <use xlink:href="#MicrosoftYaHei-8bd5" transform="translate(100 0)"/>
      <use xlink:href="#MicrosoftYaHei-96c6" transform="translate(200 0)"/>
      <use xlink:href="#MicrosoftYaHei-6307" transform="translate(300 0)"/>
      <use xlink:href="#MicrosoftYaHei-6807" transform="translate(400 0)"/>
     </g>
    </g>
   </g>
   <g id="line2d_23">
    <path d="M 68.00196 92.22313 
L 316.224687 91.098102 
L 564.447415 92.22313 
" clip-path="url(#p787bbbd1e8)" style="fill: none; stroke: #2f6b9a; stroke-width: 2; stroke-linecap: round"/>
    <defs>
     <path id="mbc53941a32" d="M 0 3 
C 0.795609 3 1.55874 2.683901 2.12132 2.12132 
C 2.683901 1.55874 3 0.795609 3 0 
C 3 -0.795609 2.683901 -1.55874 2.12132 -2.12132 
C 1.55874 -2.683901 0.795609 -3 0 -3 
C -0.795609 -3 -1.55874 -2.683901 -2.12132 -2.12132 
C -2.683901 -1.55874 -3 -0.795609 -3 0 
C -3 0.795609 -2.683901 1.55874 -2.12132 2.12132 
C -1.55874 2.683901 -0.795609 3 0 3 
z
" style="stroke: #2f6b9a"/>
    </defs>
    <g clip-path="url(#p787bbbd1e8)">
     <use xlink:href="#mbc53941a32" x="68.00196" y="92.22313" style="fill: #2f6b9a; stroke: #2f6b9a"/>
     <use xlink:href="#mbc53941a32" x="316.224687" y="91.098102" style="fill: #2f6b9a; stroke: #2f6b9a"/>
     <use xlink:href="#mbc53941a32" x="564.447415" y="92.22313" style="fill: #2f6b9a; stroke: #2f6b9a"/>
    </g>
   </g>
   <g id="line2d_24">
    <path d="M 68.00196 121.891739 
L 316.224687 119.71885 
L 564.447415 128.097673 
" clip-path="url(#p787bbbd1e8)" style="fill: none; stroke: #e07a5f; stroke-width: 2; stroke-linecap: round"/>
    <defs>
     <path id="m3523cbb39b" d="M 0 3 
C 0.795609 3 1.55874 2.683901 2.12132 2.12132 
C 2.683901 1.55874 3 0.795609 3 0 
C 3 -0.795609 2.683901 -1.55874 2.12132 -2.12132 
C 1.55874 -2.683901 0.795609 -3 0 -3 
C -0.795609 -3 -1.55874 -2.683901 -2.12132 -2.12132 
C -2.683901 -1.55874 -3 -0.795609 -3 0 
C -3 0.795609 -2.683901 1.55874 -2.12132 2.12132 
C -1.55874 2.683901 -0.795609 3 0 3 
z
" style="stroke: #e07a5f"/>
    </defs>
    <g clip-path="url(#p787bbbd1e8)">
     <use xlink:href="#m3523cbb39b" x="68.00196" y="121.891739" style="fill: #e07a5f; stroke: #e07a5f"/>
     <use xlink:href="#m3523cbb39b" x="316.224687" y="119.71885" style="fill: #e07a5f; stroke: #e07a5f"/>
     <use xlink:href="#m3523cbb39b" x="564.447415" y="128.097673" style="fill: #e07a5f; stroke: #e07a5f"/>
    </g>
   </g>
   <g id="line2d_25">
    <path d="M 68.00196 303.109332 
L 316.224687 300.722612 
L 564.447415 274.768948 
" clip-path="url(#p787bbbd1e8)" style="fill: none; stroke: #2a9d8f; stroke-width: 2; stroke-linecap: round"/>
    <defs>
     <path id="md0c29c9f98" d="M 0 3 
C 0.795609 3 1.55874 2.683901 2.12132 2.12132 
C 2.683901 1.55874 3 0.795609 3 0 
C 3 -0.795609 2.683901 -1.55874 2.12132 -2.12132 
C 1.55874 -2.683901 0.795609 -3 0 -3 
C -0.795609 -3 -1.55874 -2.683901 -2.12132 -2.12132 
C -2.683901 -1.55874 -3 -0.795609 -3 0 
C -3 0.795609 -2.683901 1.55874 -2.12132 2.12132 
C -1.55874 2.683901 -0.795609 3 0 3 
z
" style="stroke: #2a9d8f"/>
    </defs>
    <g clip-path="url(#p787bbbd1e8)">
     <use xlink:href="#md0c29c9f98" x="68.00196" y="303.109332" style="fill: #2a9d8f; stroke: #2a9d8f"/>
     <use xlink:href="#md0c29c9f98" x="316.224687" y="300.722612" style="fill: #2a9d8f; stroke: #2a9d8f"/>
     <use xlink:href="#md0c29c9f98" x="564.447415" y="274.768948" style="fill: #2a9d8f; stroke: #2a9d8f"/>
    </g>
   </g>
   <g id="patch_3">
    <path d="M 43.179688 352.7325 
L 43.179688 64.7925 
" style="fill: none; stroke: #333333; stroke-width: 0.8; stroke-linejoin: miter; stroke-linecap: square"/>
   </g>
   <g id="patch_4">
    <path d="M 43.179688 352.7325 
L 589.269688 352.7325 
" style="fill: none; stroke: #333333; stroke-width: 0.8; stroke-linejoin: miter; stroke-linecap: square"/>
   </g>
   <g id="text_14">
    <!-- 0.9951 -->
    <g style="fill: #262626" transform="translate(55.31071 85.22313) scale(0.08 -0.08)">
     <use xlink:href="#MicrosoftYaHei-30"/>
     <use xlink:href="#MicrosoftYaHei-2e" transform="translate(58.642578 0)"/>
     <use xlink:href="#MicrosoftYaHei-39" transform="translate(82.714844 0)"/>
     <use xlink:href="#MicrosoftYaHei-39" transform="translate(141.357422 0)"/>
     <use xlink:href="#MicrosoftYaHei-35" transform="translate(200 0)"/>
     <use xlink:href="#MicrosoftYaHei-31" transform="translate(258.642578 0)"/>
    </g>
   </g>
   <g id="text_15">
    <!-- 0.9954 -->
    <g style="fill: #262626" transform="translate(303.533437 84.098102) scale(0.08 -0.08)">
     <use xlink:href="#MicrosoftYaHei-30"/>
     <use xlink:href="#MicrosoftYaHei-2e" transform="translate(58.642578 0)"/>
     <use xlink:href="#MicrosoftYaHei-39" transform="translate(82.714844 0)"/>
     <use xlink:href="#MicrosoftYaHei-39" transform="translate(141.357422 0)"/>
     <use xlink:href="#MicrosoftYaHei-35" transform="translate(200 0)"/>
     <use xlink:href="#MicrosoftYaHei-34" transform="translate(258.642578 0)"/>
    </g>
   </g>
   <g id="text_16">
    <!-- 0.9951 -->
    <g style="fill: #262626" transform="translate(551.756165 85.22313) scale(0.08 -0.08)">
     <use xlink:href="#MicrosoftYaHei-30"/>
     <use xlink:href="#MicrosoftYaHei-2e" transform="translate(58.642578 0)"/>
     <use xlink:href="#MicrosoftYaHei-39" transform="translate(82.714844 0)"/>
     <use xlink:href="#MicrosoftYaHei-39" transform="translate(141.357422 0)"/>
     <use xlink:href="#MicrosoftYaHei-35" transform="translate(200 0)"/>
     <use xlink:href="#MicrosoftYaHei-31" transform="translate(258.642578 0)"/>
    </g>
   </g>
   <g id="text_17">
    <!-- 0.9877 -->
    <g style="fill: #262626" transform="translate(55.31071 114.891739) scale(0.08 -0.08)">
     <use xlink:href="#MicrosoftYaHei-30"/>
     <use xlink:href="#MicrosoftYaHei-2e" transform="translate(58.642578 0)"/>
     <use xlink:href="#MicrosoftYaHei-39" transform="translate(82.714844 0)"/>
     <use xlink:href="#MicrosoftYaHei-38" transform="translate(141.357422 0)"/>
     <use xlink:href="#MicrosoftYaHei-37" transform="translate(200 0)"/>
     <use xlink:href="#MicrosoftYaHei-37" transform="translate(258.642578 0)"/>
    </g>
   </g>
   <g id="text_18">
    <!-- 0.9883 -->
    <g style="fill: #262626" transform="translate(303.533437 112.71885) scale(0.08 -0.08)">
     <use xlink:href="#MicrosoftYaHei-30"/>
     <use xlink:href="#MicrosoftYaHei-2e" transform="translate(58.642578 0)"/>
     <use xlink:href="#MicrosoftYaHei-39" transform="translate(82.714844 0)"/>
     <use xlink:href="#MicrosoftYaHei-38" transform="translate(141.357422 0)"/>
     <use xlink:href="#MicrosoftYaHei-38" transform="translate(200 0)"/>
     <use xlink:href="#MicrosoftYaHei-33" transform="translate(258.642578 0)"/>
    </g>
   </g>
   <g id="text_19">
    <!-- 0.9862 -->
    <g style="fill: #262626" transform="translate(551.756165 121.097673) scale(0.08 -0.08)">
     <defs>
      <path id="MicrosoftYaHei-32" d="M 2666 3572 
Q 2666 3963 2419 4186 
Q 2172 4409 1747 4409 
Q 1447 4409 1140 4256 
Q 834 4103 569 3819 
L 569 4413 
Q 806 4659 1107 4790 
Q 1409 4922 1816 4922 
Q 2472 4922 2872 4570 
Q 3272 4219 3272 3619 
Q 3272 3084 3026 2693 
Q 2781 2303 2188 1894 
Q 1581 1475 1376 1294 
Q 1172 1113 1090 947 
Q 1009 781 1009 544 
L 3416 544 
L 3416 0 
L 372 0 
L 372 241 
Q 372 659 486 951 
Q 600 1244 862 1520 
Q 1125 1797 1681 2184 
Q 2250 2584 2458 2886 
Q 2666 3188 2666 3572 
z
" transform="scale(0.015625)"/>
     </defs>
     <use xlink:href="#MicrosoftYaHei-30"/>
     <use xlink:href="#MicrosoftYaHei-2e" transform="translate(58.642578 0)"/>
     <use xlink:href="#MicrosoftYaHei-39" transform="translate(82.714844 0)"/>
     <use xlink:href="#MicrosoftYaHei-38" transform="translate(141.357422 0)"/>
     <use xlink:href="#MicrosoftYaHei-36" transform="translate(200 0)"/>
     <use xlink:href="#MicrosoftYaHei-32" transform="translate(258.642578 0)"/>
    </g>
   </g>
   <g id="text_20">
    <!-- 0.9424 -->
    <g style="fill: #262626" transform="translate(55.31071 296.109332) scale(0.08 -0.08)">
     <use xlink:href="#MicrosoftYaHei-30"/>
     <use xlink:href="#MicrosoftYaHei-2e" transform="translate(58.642578 0)"/>
     <use xlink:href="#MicrosoftYaHei-39" transform="translate(82.714844 0)"/>
     <use xlink:href="#MicrosoftYaHei-34" transform="translate(141.357422 0)"/>
     <use xlink:href="#MicrosoftYaHei-32" transform="translate(200 0)"/>
     <use xlink:href="#MicrosoftYaHei-34" transform="translate(258.642578 0)"/>
    </g>
   </g>
   <g id="text_21">
    <!-- 0.9430 -->
    <g style="fill: #262626" transform="translate(303.533437 293.722612) scale(0.08 -0.08)">
     <use xlink:href="#MicrosoftYaHei-30"/>
     <use xlink:href="#MicrosoftYaHei-2e" transform="translate(58.642578 0)"/>
     <use xlink:href="#MicrosoftYaHei-39" transform="translate(82.714844 0)"/>
     <use xlink:href="#MicrosoftYaHei-34" transform="translate(141.357422 0)"/>
     <use xlink:href="#MicrosoftYaHei-33" transform="translate(200 0)"/>
     <use xlink:href="#MicrosoftYaHei-30" transform="translate(258.642578 0)"/>
    </g>
   </g>
   <g id="text_22">
    <!-- 0.9495 -->
    <g style="fill: #262626" transform="translate(551.756165 267.768948) scale(0.08 -0.08)">
     <use xlink:href="#MicrosoftYaHei-30"/>
     <use xlink:href="#MicrosoftYaHei-2e" transform="translate(58.642578 0)"/>
     <use xlink:href="#MicrosoftYaHei-39" transform="translate(82.714844 0)"/>
     <use xlink:href="#MicrosoftYaHei-34" transform="translate(141.357422 0)"/>
     <use xlink:href="#MicrosoftYaHei-39" transform="translate(200 0)"/>
     <use xlink:href="#MicrosoftYaHei-35" transform="translate(258.642578 0)"/>
    </g>
   </g>
   <g id="text_23">
    <!-- 原型库 K 值消融实验 -->
    <g style="fill: #262626" transform="translate(260.864375 16.7925) scale(0.12 -0.12)">
     <defs>
      <path id="MicrosoftYaHei-5e93" d="M 1338 778 
L 3706 778 
L 3706 1441 
L 1800 1441 
L 1800 1897 
Q 2125 2369 2409 2922 
L 1500 2922 
L 1500 3372 
L 2628 3372 
Q 2784 3706 2925 4066 
L 3438 3928 
Q 3309 3641 3178 3372 
L 5913 3372 
L 5913 2922 
L 2953 2922 
Q 2666 2366 2369 1891 
L 3706 1891 
L 3706 2684 
L 4206 2684 
L 4206 1891 
L 5919 1891 
L 5919 1441 
L 4206 1441 
L 4206 778 
L 6225 778 
L 6225 328 
L 4206 328 
L 4206 -828 
L 3706 -828 
L 3706 328 
L 1338 328 
L 1338 778 
z
M 2981 5122 
L 3363 5403 
Q 3663 5116 3919 4778 
L 3653 4584 
L 6238 4584 
L 6238 4134 
L 1206 4134 
L 1206 2353 
Q 1213 203 388 -878 
Q 231 -678 31 -453 
Q 713 441 706 2266 
L 706 4584 
L 3416 4584 
Q 3213 4856 2981 5122 
z
" transform="scale(0.015625)"/>
      <path id="MicrosoftYaHei-503c" d="M 1619 -216 
L 2250 -216 
L 2250 3653 
L 3725 3653 
L 3725 4222 
L 1913 4222 
L 1913 4647 
L 3725 4647 
L 3725 5309 
L 4200 5309 
L 4200 4647 
L 6169 4647 
L 6169 4222 
L 4200 4222 
L 4200 3653 
L 5713 3653 
L 5713 -216 
L 6306 -216 
L 6306 -641 
L 1619 -641 
L 1619 -216 
z
M 69 2247 
Q 906 3497 1369 5278 
L 1831 5141 
Q 1581 4334 1288 3628 
L 1288 -816 
L 831 -816 
L 831 2666 
Q 563 2166 263 1734 
Q 175 1997 69 2247 
z
M 2713 -216 
L 5250 -216 
L 5250 353 
L 2713 353 
L 2713 -216 
z
M 5250 3241 
L 2713 3241 
L 2713 2678 
L 5250 2678 
L 5250 3241 
z
M 2713 1716 
L 5250 1716 
L 5250 2278 
L 2713 2278 
L 2713 1716 
z
M 2713 753 
L 5250 753 
L 5250 1316 
L 2713 1316 
L 2713 753 
z
" transform="scale(0.015625)"/>
      <path id="MicrosoftYaHei-6d88" d="M 2513 -803 
L 2019 -803 
L 2019 3566 
L 3731 3566 
L 3731 5334 
L 4250 5334 
L 4250 3566 
L 5925 3566 
L 5925 -47 
Q 5925 -778 5225 -778 
Q 4819 -778 4144 -759 
Q 4106 -528 4050 -247 
Q 4669 -284 5031 -284 
Q 5431 -284 5431 59 
L 5431 653 
L 2513 653 
L 2513 -803 
z
M 2513 1103 
L 5431 1103 
L 5431 1878 
L 2513 1878 
L 2513 1103 
z
M 5431 3097 
L 2513 3097 
L 2513 2328 
L 5431 2328 
L 5431 3097 
z
M 844 1816 
Q 1100 1716 1356 1628 
Q 1050 384 781 -784 
L 231 -622 
Q 569 491 844 1816 
z
M 4750 4097 
Q 5225 4578 5644 5159 
L 6094 4816 
Q 5700 4353 5119 3772 
L 4750 4097 
z
M 400 3622 
Q 869 3291 1500 2772 
Q 1269 2509 1138 2366 
Q 431 2997 88 3259 
L 400 3622 
z
M 638 5241 
Q 1113 4866 1713 4328 
Q 1500 4109 1344 3941 
Q 669 4597 319 4897 
L 638 5241 
z
M 1931 4872 
L 2294 5159 
Q 2581 4897 3250 4141 
L 2825 3816 
Q 2213 4584 1931 4872 
z
" transform="scale(0.015625)"/>
      <path id="MicrosoftYaHei-878d" d="M 5425 1016 
L 5844 1134 
Q 6125 178 6319 -666 
L 5881 -778 
Q 5844 -609 5800 -441 
Q 4613 -572 3569 -697 
L 3475 -178 
Q 4063 -141 4631 -97 
L 4631 1591 
L 4113 1591 
L 4113 1384 
L 3656 1384 
L 3656 4141 
L 4631 4141 
L 4631 5259 
L 5069 5259 
L 5069 4141 
L 6013 4141 
L 6013 1591 
L 5069 1591 
L 5069 -59 
Q 5388 -34 5694 -16 
Q 5575 484 5425 1016 
z
M 763 -797 
L 350 -797 
L 350 2403 
L 3319 2403 
L 3319 -203 
Q 3319 -791 2700 -791 
L 2219 -791 
Q 2188 -572 2125 -359 
Q 2425 -384 2613 -384 
Q 2906 -384 2906 -116 
L 2906 2016 
L 763 2016 
L 763 -797 
z
M 606 4184 
L 3069 4184 
L 3069 2678 
L 2656 2678 
L 2656 2841 
L 1019 2841 
L 1019 2678 
L 606 2678 
L 606 4184 
z
M 875 1016 
L 1838 1016 
Q 2194 1659 2300 1909 
L 2669 1734 
Q 2413 1316 2213 1016 
L 2781 1016 
L 2781 641 
L 2025 641 
L 2025 -659 
L 1638 -659 
L 1638 641 
L 875 641 
L 875 1016 
z
M 300 5016 
L 3344 5016 
L 3344 4616 
L 300 4616 
L 300 5016 
z
M 2656 3809 
L 1019 3809 
L 1019 3216 
L 2656 3216 
L 2656 3809 
z
M 5588 2003 
L 5588 3728 
L 5069 3728 
L 5069 2003 
L 5588 2003 
z
M 4113 2003 
L 4631 2003 
L 4631 3728 
L 4113 3728 
L 4113 2003 
z
M 988 1697 
L 1288 1884 
Q 1513 1584 1694 1241 
L 1369 1041 
Q 1188 1378 988 1697 
z
" transform="scale(0.015625)"/>
      <path id="MicrosoftYaHei-5b9e" d="M 113 -397 
Q 2419 34 3081 972 
L 213 972 
L 213 1434 
L 3313 1434 
Q 3525 2084 3506 3703 
L 4031 3703 
Q 4031 2097 3856 1434 
L 6225 1434 
L 6225 972 
L 3681 972 
Q 3631 872 3563 759 
Q 4900 197 6181 -403 
L 5906 -878 
Q 4569 -197 3263 391 
Q 2413 -441 413 -891 
Q 269 -616 113 -397 
z
M 331 4422 
L 3194 4422 
Q 3038 4703 2775 5078 
L 3231 5334 
Q 3438 5059 3731 4609 
L 3388 4422 
L 6063 4422 
L 6063 3303 
L 5563 3303 
L 5563 3959 
L 831 3959 
L 831 3303 
L 331 3303 
L 331 4422 
z
M 1100 2734 
Q 1819 2409 2450 2053 
L 2181 1622 
Q 1556 2003 863 2334 
L 1100 2734 
z
M 1663 3691 
Q 2388 3341 2981 2984 
L 2700 2559 
Q 2119 2934 1419 3322 
L 1663 3691 
z
" transform="scale(0.015625)"/>
      <path id="MicrosoftYaHei-9a8c" d="M 963 4116 
L 819 2397 
L 1450 2397 
L 1613 4503 
L 194 4503 
L 194 4928 
L 2088 4928 
L 1894 2397 
L 2288 2397 
Q 2244 1078 2206 228 
Q 2188 -722 1381 -722 
Q 1044 -722 588 -703 
Q 556 -472 506 -209 
Q 956 -266 1306 -266 
Q 1744 -266 1769 266 
Q 1806 953 1831 1972 
L 331 1972 
L 531 4116 
L 963 4116 
z
M 2338 -103 
L 4594 -103 
Q 5044 1009 5394 2222 
L 5869 2072 
Q 5500 953 5088 -103 
L 6188 -103 
L 6188 -534 
L 2338 -534 
L 2338 -103 
z
M 4606 5278 
L 4488 5078 
Q 5244 3734 6363 3122 
Q 6163 2872 6031 2684 
Q 4931 3497 4238 4641 
Q 3600 3509 2456 2609 
Q 2344 2772 2144 3003 
Q 3388 3866 4050 5278 
L 4606 5278 
z
M 2975 2978 
L 5550 2978 
L 5550 2547 
L 2975 2547 
L 2975 2978 
z
M 3731 2178 
L 4175 2297 
Q 4438 1359 4606 659 
L 4150 528 
Q 3969 1391 3731 2178 
z
M 2656 1897 
L 3094 2034 
Q 3400 1147 3606 453 
L 3144 297 
Q 2938 1097 2656 1897 
z
M 38 1034 
Q 763 1178 1631 1384 
Q 1625 1134 1638 941 
Q 925 791 131 572 
L 38 1034 
z
" transform="scale(0.015625)"/>
     </defs>
     <use xlink:href="#MicrosoftYaHei-539f"/>
     <use xlink:href="#MicrosoftYaHei-578b" transform="translate(100 0)"/>
     <use xlink:href="#MicrosoftYaHei-5e93" transform="translate(200 0)"/>
     <use xlink:href="#MicrosoftYaHei-20" transform="translate(300 0)"/>
     <use xlink:href="#MicrosoftYaHei-4b" transform="translate(329.589844 0)"/>
     <use xlink:href="#MicrosoftYaHei-20" transform="translate(393.066406 0)"/>
     <use xlink:href="#MicrosoftYaHei-503c" transform="translate(422.65625 0)"/>
     <use xlink:href="#MicrosoftYaHei-6d88" transform="translate(522.65625 0)"/>
     <use xlink:href="#MicrosoftYaHei-878d" transform="translate(622.65625 0)"/>
     <use xlink:href="#MicrosoftYaHei-5b9e" transform="translate(722.65625 0)"/>
     <use xlink:href="#MicrosoftYaHei-9a8c" transform="translate(822.65625 0)"/>
    </g>
   </g>
   <g id="legend_1">
    <g id="line2d_26">
     <path d="M 228.809375 46.986056 
L 237.809375 46.986056 
L 246.809375 46.986056 
" style="fill: none; stroke: #2f6b9a; stroke-width: 2; stroke-linecap: round"/>
     <g>
      <use xlink:href="#mbc53941a32" x="237.809375" y="46.986056" style="fill: #2f6b9a; stroke: #2f6b9a"/>
     </g>
    </g>
    <g id="text_24">
     <!-- AUC -->
     <g style="fill: #262626" transform="translate(254.009375 50.136056) scale(0.09 -0.09)">
      <defs>
       <path id="MicrosoftYaHei-41" d="M 4428 0 
L 3738 0 
L 3244 1325 
L 1228 1325 
L 763 0 
L 72 0 
L 1916 4841 
L 2584 4841 
L 4428 0 
z
M 3050 1872 
L 2319 3884 
Q 2284 3981 2244 4222 
L 2228 4222 
Q 2194 4003 2150 3884 
L 1425 1872 
L 3050 1872 
z
" transform="scale(0.015625)"/>
       <path id="MicrosoftYaHei-55" d="M 4213 1972 
Q 4213 -81 2350 -81 
Q 566 -81 566 1900 
L 566 4841 
L 1191 4841 
L 1191 1928 
Q 1191 475 2409 475 
Q 3588 475 3588 1881 
L 3588 4841 
L 4213 4841 
L 4213 1972 
z
" transform="scale(0.015625)"/>
       <path id="MicrosoftYaHei-43" d="M 3938 200 
Q 3403 -81 2597 -81 
Q 1556 -81 934 580 
Q 313 1241 313 2328 
Q 313 3497 1013 4209 
Q 1713 4922 2791 4922 
Q 3484 4922 3938 4725 
L 3938 4072 
Q 3419 4359 2797 4359 
Q 1988 4359 1478 3820 
Q 969 3281 969 2366 
Q 969 1497 1444 986 
Q 1919 475 2688 475 
Q 3406 475 3938 800 
L 3938 200 
z
" transform="scale(0.015625)"/>
      </defs>
      <use xlink:href="#MicrosoftYaHei-41"/>
      <use xlink:href="#MicrosoftYaHei-55" transform="translate(68.986328 0)"/>
      <use xlink:href="#MicrosoftYaHei-43" transform="translate(143.644531 0)"/>
     </g>
    </g>
    <g id="line2d_27">
     <path d="M 290.957188 46.986056 
L 299.957188 46.986056 
L 308.957188 46.986056 
" style="fill: none; stroke: #e07a5f; stroke-width: 2; stroke-linecap: round"/>
     <g>
      <use xlink:href="#m3523cbb39b" x="299.957188" y="46.986056" style="fill: #e07a5f; stroke: #e07a5f"/>
     </g>
    </g>
    <g id="text_25">
     <!-- PR-AUC -->
     <g style="fill: #262626" transform="translate(316.157188 50.136056) scale(0.09 -0.09)">
      <defs>
       <path id="MicrosoftYaHei-50" d="M 1250 1809 
L 1250 0 
L 625 0 
L 625 4841 
L 2000 4841 
Q 2784 4841 3217 4462 
Q 3650 4084 3650 3381 
Q 3650 2669 3144 2226 
Q 2638 1784 1878 1809 
L 1250 1809 
z
M 1250 4291 
L 1250 2359 
L 1828 2359 
Q 2400 2359 2697 2617 
Q 2994 2875 2994 3356 
Q 2994 4291 1888 4291 
L 1250 4291 
z
" transform="scale(0.015625)"/>
       <path id="MicrosoftYaHei-52" d="M 4159 0 
L 3422 0 
L 2619 1344 
Q 2378 1747 2178 1892 
Q 1978 2038 1700 2038 
L 1250 2038 
L 1250 0 
L 625 0 
L 625 4841 
L 2100 4841 
Q 2806 4841 3206 4500 
Q 3606 4159 3606 3547 
Q 3606 2541 2531 2241 
L 2531 2225 
Q 2731 2141 2876 1984 
Q 3022 1828 3253 1450 
L 4159 0 
z
M 1250 4294 
L 1250 2584 
L 1988 2584 
Q 2416 2584 2683 2834 
Q 2950 3084 2950 3491 
Q 2950 3869 2706 4081 
Q 2463 4294 1997 4294 
L 1250 4294 
z
" transform="scale(0.015625)"/>
       <path id="MicrosoftYaHei-2d" d="M 2328 1681 
L 488 1681 
L 488 2153 
L 2328 2153 
L 2328 1681 
z
" transform="scale(0.015625)"/>
      </defs>
      <use xlink:href="#MicrosoftYaHei-50"/>
      <use xlink:href="#MicrosoftYaHei-52" transform="translate(61.181641 0)"/>
      <use xlink:href="#MicrosoftYaHei-2d" transform="translate(126.464844 0)"/>
      <use xlink:href="#MicrosoftYaHei-41" transform="translate(169.726562 0)"/>
      <use xlink:href="#MicrosoftYaHei-55" transform="translate(238.712891 0)"/>
      <use xlink:href="#MicrosoftYaHei-43" transform="translate(313.371094 0)"/>
     </g>
    </g>
    <g id="line2d_28">
     <path d="M 368.381094 46.986056 
L 377.381094 46.986056 
L 386.381094 46.986056 
" style="fill: none; stroke: #2a9d8f; stroke-width: 2; stroke-linecap: round"/>
     <g>
      <use xlink:href="#md0c29c9f98" x="377.381094" y="46.986056" style="fill: #2a9d8f; stroke: #2a9d8f"/>
     </g>
    </g>
    <g id="text_26">
     <!-- F1 -->
     <g style="fill: #262626" transform="translate(393.581094 50.136056) scale(0.09 -0.09)">
      <defs>
       <path id="MicrosoftYaHei-46" d="M 3119 4284 
L 1250 4284 
L 1250 2666 
L 2981 2666 
L 2981 2116 
L 1250 2116 
L 1250 0 
L 625 0 
L 625 4841 
L 3119 4841 
L 3119 4284 
z
" transform="scale(0.015625)"/>
      </defs>
      <use xlink:href="#MicrosoftYaHei-46"/>
      <use xlink:href="#MicrosoftYaHei-31" transform="translate(53.125 0)"/>
     </g>
    </g>
   </g>
  </g>
 </g>
 <defs>
  <clipPath id="p787bbbd1e8">
   <rect x="43.179688" y="64.7925" width="546.09" height="287.94"/>
  </clipPath>
 </defs>
</svg>
